<mxfile host="app.diagrams.net" agent="Mozilla/5.0 (Linux; Android 10; K) AppleWebKit/537.36 (KHTML, like Gecko) Chrome/140.0.0.0 Mobile Safari/537.36" version="28.2.3">
  <diagram name="Página-1" id="eonNXWq47-8kRf5O5LAT">
    <mxGraphModel dx="357" dy="1789" grid="1" gridSize="10" guides="1" tooltips="1" connect="1" arrows="1" fold="1" page="1" pageScale="1" pageWidth="827" pageHeight="1169" math="0" shadow="0">
      <root>
        <mxCell id="0" />
        <mxCell id="1" parent="0" />
        <mxCell id="mam_x7ai-kY7KDasfJsH-1" value="Usuario" style="rounded=0;whiteSpace=wrap;html=1;" parent="1" vertex="1">
          <mxGeometry x="1710" y="580" width="138" height="40" as="geometry" />
        </mxCell>
        <mxCell id="mam_x7ai-kY7KDasfJsH-2" value="Id_usuario (PK)" style="ellipse;whiteSpace=wrap;html=1;" parent="1" vertex="1">
          <mxGeometry x="1600" y="510" width="80" height="40" as="geometry" />
        </mxCell>
        <mxCell id="mam_x7ai-kY7KDasfJsH-3" value="Nombre" style="ellipse;whiteSpace=wrap;html=1;" parent="1" vertex="1">
          <mxGeometry x="1680" y="485" width="68" height="30" as="geometry" />
        </mxCell>
        <mxCell id="mam_x7ai-kY7KDasfJsH-4" style="edgeStyle=orthogonalEdgeStyle;rounded=0;orthogonalLoop=1;jettySize=auto;html=1;exitX=0;exitY=1;exitDx=0;exitDy=0;entryX=0.75;entryY=0;entryDx=0;entryDy=0;" parent="1" source="mam_x7ai-kY7KDasfJsH-5" target="mam_x7ai-kY7KDasfJsH-1" edge="1">
          <mxGeometry relative="1" as="geometry" />
        </mxCell>
        <mxCell id="mam_x7ai-kY7KDasfJsH-5" value="Apellido" style="ellipse;whiteSpace=wrap;html=1;" parent="1" vertex="1">
          <mxGeometry x="1808" y="500.5" width="60" height="30" as="geometry" />
        </mxCell>
        <mxCell id="mam_x7ai-kY7KDasfJsH-6" value="Estado" style="ellipse;whiteSpace=wrap;html=1;" parent="1" vertex="1">
          <mxGeometry x="1868" y="650" width="60" height="30" as="geometry" />
        </mxCell>
        <mxCell id="mam_x7ai-kY7KDasfJsH-7" style="edgeStyle=orthogonalEdgeStyle;rounded=0;orthogonalLoop=1;jettySize=auto;html=1;exitX=0;exitY=0.5;exitDx=0;exitDy=0;entryX=1;entryY=0;entryDx=0;entryDy=0;" parent="1" source="mam_x7ai-kY7KDasfJsH-8" target="mam_x7ai-kY7KDasfJsH-1" edge="1">
          <mxGeometry relative="1" as="geometry" />
        </mxCell>
        <mxCell id="mam_x7ai-kY7KDasfJsH-8" value="Contraseña" style="ellipse;whiteSpace=wrap;html=1;" parent="1" vertex="1">
          <mxGeometry x="1880" y="540" width="70" height="30" as="geometry" />
        </mxCell>
        <mxCell id="mam_x7ai-kY7KDasfJsH-9" style="edgeStyle=orthogonalEdgeStyle;rounded=0;orthogonalLoop=1;jettySize=auto;html=1;exitX=1;exitY=0;exitDx=0;exitDy=0;entryX=0;entryY=0.75;entryDx=0;entryDy=0;" parent="1" source="mam_x7ai-kY7KDasfJsH-10" target="mam_x7ai-kY7KDasfJsH-1" edge="1">
          <mxGeometry relative="1" as="geometry" />
        </mxCell>
        <mxCell id="mam_x7ai-kY7KDasfJsH-10" value="Rol" style="ellipse;whiteSpace=wrap;html=1;" parent="1" vertex="1">
          <mxGeometry x="1620" y="620" width="60" height="30" as="geometry" />
        </mxCell>
        <mxCell id="mam_x7ai-kY7KDasfJsH-11" value="Fecha_registro" style="ellipse;whiteSpace=wrap;html=1;" parent="1" vertex="1">
          <mxGeometry x="1763" y="690" width="98" height="30" as="geometry" />
        </mxCell>
        <mxCell id="mam_x7ai-kY7KDasfJsH-12" value="Pertenece" style="strokeWidth=2;html=1;shape=mxgraph.flowchart.decision;whiteSpace=wrap;" parent="1" vertex="1">
          <mxGeometry x="470" y="571.75" width="90" height="57.5" as="geometry" />
        </mxCell>
        <mxCell id="mam_x7ai-kY7KDasfJsH-13" value="Realiza" style="strokeWidth=2;html=1;shape=mxgraph.flowchart.decision;whiteSpace=wrap;" parent="1" vertex="1">
          <mxGeometry x="1950" y="575" width="60" height="50" as="geometry" />
        </mxCell>
        <mxCell id="mam_x7ai-kY7KDasfJsH-14" value="" style="endArrow=none;html=1;rounded=0;" parent="1" edge="1">
          <mxGeometry relative="1" as="geometry">
            <mxPoint x="1848" y="599.5" as="sourcePoint" />
            <mxPoint x="1950" y="600" as="targetPoint" />
          </mxGeometry>
        </mxCell>
        <mxCell id="mam_x7ai-kY7KDasfJsH-15" value="Venta" style="rounded=0;whiteSpace=wrap;html=1;" parent="1" vertex="1">
          <mxGeometry x="2090" y="580" width="128" height="40" as="geometry" />
        </mxCell>
        <mxCell id="mam_x7ai-kY7KDasfJsH-16" style="edgeStyle=orthogonalEdgeStyle;rounded=0;orthogonalLoop=1;jettySize=auto;html=1;exitX=0;exitY=0.5;exitDx=0;exitDy=0;entryX=0.5;entryY=1;entryDx=0;entryDy=0;" parent="1" source="mam_x7ai-kY7KDasfJsH-6" target="mam_x7ai-kY7KDasfJsH-1" edge="1">
          <mxGeometry relative="1" as="geometry" />
        </mxCell>
        <mxCell id="mam_x7ai-kY7KDasfJsH-17" value="Stock" style="rounded=0;whiteSpace=wrap;html=1;" parent="1" vertex="1">
          <mxGeometry x="1397" y="285" width="128" height="40" as="geometry" />
        </mxCell>
        <mxCell id="mam_x7ai-kY7KDasfJsH-18" value="Realiza" style="strokeWidth=2;html=1;shape=mxgraph.flowchart.decision;whiteSpace=wrap;" parent="1" vertex="1">
          <mxGeometry x="1748" y="280" width="60" height="50" as="geometry" />
        </mxCell>
        <mxCell id="mam_x7ai-kY7KDasfJsH-19" value="" style="endArrow=none;html=1;rounded=0;exitX=0.5;exitY=0;exitDx=0;exitDy=0;entryX=0.5;entryY=1;entryDx=0;entryDy=0;entryPerimeter=0;" parent="1" source="mam_x7ai-kY7KDasfJsH-1" target="mam_x7ai-kY7KDasfJsH-18" edge="1">
          <mxGeometry relative="1" as="geometry">
            <mxPoint x="1930" y="710" as="sourcePoint" />
            <mxPoint x="2032" y="710.5" as="targetPoint" />
          </mxGeometry>
        </mxCell>
        <mxCell id="mam_x7ai-kY7KDasfJsH-20" value="" style="endArrow=none;html=1;rounded=0;exitX=1;exitY=0.5;exitDx=0;exitDy=0;exitPerimeter=0;entryX=0;entryY=1;entryDx=0;entryDy=0;" parent="1" source="mam_x7ai-kY7KDasfJsH-132" target="mam_x7ai-kY7KDasfJsH-1" edge="1">
          <mxGeometry relative="1" as="geometry">
            <mxPoint x="1946" y="1220" as="sourcePoint" />
            <mxPoint x="2048" y="1220.5" as="targetPoint" />
            <Array as="points">
              <mxPoint x="1710" y="1255" />
            </Array>
          </mxGeometry>
        </mxCell>
        <mxCell id="mam_x7ai-kY7KDasfJsH-21" value="" style="endArrow=none;html=1;rounded=0;exitX=1;exitY=0.5;exitDx=0;exitDy=0;exitPerimeter=0;entryX=0;entryY=0.5;entryDx=0;entryDy=0;" parent="1" source="mam_x7ai-kY7KDasfJsH-13" target="mam_x7ai-kY7KDasfJsH-15" edge="1">
          <mxGeometry relative="1" as="geometry">
            <mxPoint x="2030" y="700" as="sourcePoint" />
            <mxPoint x="2132" y="700.5" as="targetPoint" />
          </mxGeometry>
        </mxCell>
        <mxCell id="mam_x7ai-kY7KDasfJsH-22" value="Productos" style="rounded=0;whiteSpace=wrap;html=1;" parent="1" vertex="1">
          <mxGeometry x="780" y="580.5" width="128" height="40" as="geometry" />
        </mxCell>
        <mxCell id="mam_x7ai-kY7KDasfJsH-23" value="Categoría" style="rounded=0;whiteSpace=wrap;html=1;" parent="1" vertex="1">
          <mxGeometry x="230" y="577.5" width="128" height="40" as="geometry" />
        </mxCell>
        <mxCell id="mam_x7ai-kY7KDasfJsH-24" value="Proveedor" style="rounded=0;whiteSpace=wrap;html=1;" parent="1" vertex="1">
          <mxGeometry x="930" y="125" width="128" height="40" as="geometry" />
        </mxCell>
        <mxCell id="mam_x7ai-kY7KDasfJsH-25" value="Compra" style="rounded=0;whiteSpace=wrap;html=1;" parent="1" vertex="1">
          <mxGeometry x="1260" y="580" width="128" height="40" as="geometry" />
        </mxCell>
        <mxCell id="mam_x7ai-kY7KDasfJsH-28" value="Id_venta (PK)" style="ellipse;whiteSpace=wrap;html=1;" parent="1" vertex="1">
          <mxGeometry x="2018" y="505" width="80" height="40" as="geometry" />
        </mxCell>
        <mxCell id="mam_x7ai-kY7KDasfJsH-29" style="edgeStyle=orthogonalEdgeStyle;rounded=0;orthogonalLoop=1;jettySize=auto;html=1;exitX=0.5;exitY=1;exitDx=0;exitDy=0;entryX=0.078;entryY=-0.025;entryDx=0;entryDy=0;entryPerimeter=0;" parent="1" source="mam_x7ai-kY7KDasfJsH-28" target="mam_x7ai-kY7KDasfJsH-15" edge="1">
          <mxGeometry relative="1" as="geometry" />
        </mxCell>
        <mxCell id="mam_x7ai-kY7KDasfJsH-30" style="edgeStyle=orthogonalEdgeStyle;rounded=0;orthogonalLoop=1;jettySize=auto;html=1;exitX=0;exitY=1;exitDx=0;exitDy=0;entryX=0.195;entryY=0.05;entryDx=0;entryDy=0;entryPerimeter=0;" parent="1" source="mam_x7ai-kY7KDasfJsH-31" target="mam_x7ai-kY7KDasfJsH-15" edge="1">
          <mxGeometry relative="1" as="geometry" />
        </mxCell>
        <mxCell id="mam_x7ai-kY7KDasfJsH-31" value="Fecha" style="ellipse;whiteSpace=wrap;html=1;" parent="1" vertex="1">
          <mxGeometry x="2098" y="475" width="72" height="35" as="geometry" />
        </mxCell>
        <mxCell id="mam_x7ai-kY7KDasfJsH-32" style="edgeStyle=orthogonalEdgeStyle;rounded=0;orthogonalLoop=1;jettySize=auto;html=1;exitX=0;exitY=0;exitDx=0;exitDy=0;entryX=0;entryY=0.75;entryDx=0;entryDy=0;" parent="1" source="mam_x7ai-kY7KDasfJsH-33" target="mam_x7ai-kY7KDasfJsH-15" edge="1">
          <mxGeometry relative="1" as="geometry" />
        </mxCell>
        <mxCell id="mam_x7ai-kY7KDasfJsH-33" value="Id_usuario (FK)" style="ellipse;whiteSpace=wrap;html=1;" parent="1" vertex="1">
          <mxGeometry x="2048" y="660" width="80" height="40" as="geometry" />
        </mxCell>
        <mxCell id="mam_x7ai-kY7KDasfJsH-34" value="Total" style="ellipse;whiteSpace=wrap;html=1;" parent="1" vertex="1">
          <mxGeometry x="2200" y="540" width="60" height="30" as="geometry" />
        </mxCell>
        <mxCell id="mam_x7ai-kY7KDasfJsH-35" value="Hora" style="ellipse;whiteSpace=wrap;html=1;" parent="1" vertex="1">
          <mxGeometry x="2180" y="505" width="60" height="30" as="geometry" />
        </mxCell>
        <mxCell id="mam_x7ai-kY7KDasfJsH-36" style="edgeStyle=orthogonalEdgeStyle;rounded=0;orthogonalLoop=1;jettySize=auto;html=1;exitX=0;exitY=0.5;exitDx=0;exitDy=0;entryX=0.43;entryY=0.025;entryDx=0;entryDy=0;entryPerimeter=0;" parent="1" source="mam_x7ai-kY7KDasfJsH-35" target="mam_x7ai-kY7KDasfJsH-15" edge="1">
          <mxGeometry relative="1" as="geometry" />
        </mxCell>
        <mxCell id="mam_x7ai-kY7KDasfJsH-37" style="edgeStyle=orthogonalEdgeStyle;rounded=0;orthogonalLoop=1;jettySize=auto;html=1;exitX=0;exitY=0.5;exitDx=0;exitDy=0;entryX=0.672;entryY=-0.05;entryDx=0;entryDy=0;entryPerimeter=0;" parent="1" source="mam_x7ai-kY7KDasfJsH-34" target="mam_x7ai-kY7KDasfJsH-15" edge="1">
          <mxGeometry relative="1" as="geometry" />
        </mxCell>
        <mxCell id="mam_x7ai-kY7KDasfJsH-38" style="edgeStyle=orthogonalEdgeStyle;rounded=0;orthogonalLoop=1;jettySize=auto;html=1;exitX=0;exitY=0;exitDx=0;exitDy=0;entryX=0.75;entryY=1;entryDx=0;entryDy=0;" parent="1" source="mam_x7ai-kY7KDasfJsH-39" target="mam_x7ai-kY7KDasfJsH-15" edge="1">
          <mxGeometry relative="1" as="geometry" />
        </mxCell>
        <mxCell id="mam_x7ai-kY7KDasfJsH-39" value="Metodo_pago" style="ellipse;whiteSpace=wrap;html=1;" parent="1" vertex="1">
          <mxGeometry x="2200" y="650" width="90" height="30" as="geometry" />
        </mxCell>
        <mxCell id="mam_x7ai-kY7KDasfJsH-43" value="Suministra&amp;nbsp;" style="strokeWidth=2;html=1;shape=mxgraph.flowchart.decision;whiteSpace=wrap;" parent="1" vertex="1">
          <mxGeometry x="1158" y="172.5" width="83" height="57.5" as="geometry" />
        </mxCell>
        <mxCell id="mam_x7ai-kY7KDasfJsH-44" value="" style="endArrow=none;html=1;rounded=0;exitX=1;exitY=0.5;exitDx=0;exitDy=0;entryX=0.5;entryY=0;entryDx=0;entryDy=0;entryPerimeter=0;" parent="1" source="mam_x7ai-kY7KDasfJsH-24" target="mam_x7ai-kY7KDasfJsH-43" edge="1">
          <mxGeometry relative="1" as="geometry">
            <mxPoint x="1196" y="570" as="sourcePoint" />
            <mxPoint x="1341" y="145" as="targetPoint" />
            <Array as="points">
              <mxPoint x="1197" y="140" />
            </Array>
          </mxGeometry>
        </mxCell>
        <mxCell id="mam_x7ai-kY7KDasfJsH-46" value="Historial_precios" style="rounded=0;whiteSpace=wrap;html=1;" parent="1" vertex="1">
          <mxGeometry x="780" y="1044" width="128" height="40" as="geometry" />
        </mxCell>
        <mxCell id="mam_x7ai-kY7KDasfJsH-47" value="Tiene" style="strokeWidth=2;html=1;shape=mxgraph.flowchart.decision;whiteSpace=wrap;" parent="1" vertex="1">
          <mxGeometry x="814" y="890" width="60" height="50" as="geometry" />
        </mxCell>
        <mxCell id="mam_x7ai-kY7KDasfJsH-48" value="" style="endArrow=none;html=1;rounded=0;exitX=0.5;exitY=1;exitDx=0;exitDy=0;" parent="1" source="mam_x7ai-kY7KDasfJsH-22" target="mam_x7ai-kY7KDasfJsH-47" edge="1">
          <mxGeometry relative="1" as="geometry">
            <mxPoint x="920" y="853" as="sourcePoint" />
            <mxPoint x="1022" y="853.5" as="targetPoint" />
          </mxGeometry>
        </mxCell>
        <mxCell id="mam_x7ai-kY7KDasfJsH-49" value="" style="endArrow=none;html=1;rounded=0;entryX=0;entryY=0.5;entryDx=0;entryDy=0;entryPerimeter=0;exitX=1;exitY=0.5;exitDx=0;exitDy=0;" parent="1" source="mam_x7ai-kY7KDasfJsH-22" edge="1">
          <mxGeometry relative="1" as="geometry">
            <mxPoint x="890" y="1080" as="sourcePoint" />
            <mxPoint x="1050" y="600.5" as="targetPoint" />
          </mxGeometry>
        </mxCell>
        <mxCell id="mam_x7ai-kY7KDasfJsH-50" value="" style="endArrow=none;html=1;rounded=0;entryX=0;entryY=0.5;entryDx=0;entryDy=0;entryPerimeter=0;exitX=1;exitY=0.5;exitDx=0;exitDy=0;" parent="1" source="mam_x7ai-kY7KDasfJsH-25" target="mam_x7ai-kY7KDasfJsH-85" edge="1">
          <mxGeometry relative="1" as="geometry">
            <mxPoint x="1280" y="890" as="sourcePoint" />
            <mxPoint x="1382" y="890.5" as="targetPoint" />
          </mxGeometry>
        </mxCell>
        <mxCell id="mam_x7ai-kY7KDasfJsH-51" value="" style="endArrow=none;html=1;rounded=0;exitX=0.5;exitY=1;exitDx=0;exitDy=0;exitPerimeter=0;entryX=0.5;entryY=0;entryDx=0;entryDy=0;" parent="1" source="mam_x7ai-kY7KDasfJsH-47" target="mam_x7ai-kY7KDasfJsH-46" edge="1">
          <mxGeometry relative="1" as="geometry">
            <mxPoint x="910" y="1110" as="sourcePoint" />
            <mxPoint x="1012" y="1110.5" as="targetPoint" />
          </mxGeometry>
        </mxCell>
        <mxCell id="mam_x7ai-kY7KDasfJsH-52" value="" style="endArrow=none;html=1;rounded=0;entryX=0;entryY=0.5;entryDx=0;entryDy=0;entryPerimeter=0;exitX=1;exitY=0.5;exitDx=0;exitDy=0;" parent="1" source="mam_x7ai-kY7KDasfJsH-23" target="mam_x7ai-kY7KDasfJsH-12" edge="1">
          <mxGeometry relative="1" as="geometry">
            <mxPoint x="470" y="675.5" as="sourcePoint" />
            <mxPoint x="550" y="675.5" as="targetPoint" />
          </mxGeometry>
        </mxCell>
        <mxCell id="mam_x7ai-kY7KDasfJsH-53" value="" style="endArrow=none;html=1;rounded=0;entryX=0;entryY=0.5;entryDx=0;entryDy=0;exitX=1;exitY=0.5;exitDx=0;exitDy=0;exitPerimeter=0;" parent="1" source="mam_x7ai-kY7KDasfJsH-12" target="mam_x7ai-kY7KDasfJsH-22" edge="1">
          <mxGeometry relative="1" as="geometry">
            <mxPoint x="710" y="611" as="sourcePoint" />
            <mxPoint x="820" y="683" as="targetPoint" />
          </mxGeometry>
        </mxCell>
        <mxCell id="mam_x7ai-kY7KDasfJsH-54" value="Id_categoria (PK)" style="ellipse;whiteSpace=wrap;html=1;" parent="1" vertex="1">
          <mxGeometry x="250" y="503" width="90" height="47" as="geometry" />
        </mxCell>
        <mxCell id="mam_x7ai-kY7KDasfJsH-55" value="Nombre" style="ellipse;whiteSpace=wrap;html=1;" parent="1" vertex="1">
          <mxGeometry x="220" y="663" width="80" height="30" as="geometry" />
        </mxCell>
        <mxCell id="mam_x7ai-kY7KDasfJsH-56" value="Descripción" style="ellipse;whiteSpace=wrap;html=1;" parent="1" vertex="1">
          <mxGeometry x="310" y="658" width="80" height="40" as="geometry" />
        </mxCell>
        <mxCell id="mam_x7ai-kY7KDasfJsH-57" style="edgeStyle=orthogonalEdgeStyle;rounded=0;orthogonalLoop=1;jettySize=auto;html=1;exitX=0.5;exitY=1;exitDx=0;exitDy=0;entryX=0.4;entryY=0.046;entryDx=0;entryDy=0;entryPerimeter=0;" parent="1" source="mam_x7ai-kY7KDasfJsH-54" target="mam_x7ai-kY7KDasfJsH-23" edge="1">
          <mxGeometry relative="1" as="geometry" />
        </mxCell>
        <mxCell id="mam_x7ai-kY7KDasfJsH-58" style="edgeStyle=orthogonalEdgeStyle;rounded=0;orthogonalLoop=1;jettySize=auto;html=1;exitX=0.5;exitY=0;exitDx=0;exitDy=0;entryX=0.833;entryY=0.931;entryDx=0;entryDy=0;entryPerimeter=0;" parent="1" source="mam_x7ai-kY7KDasfJsH-56" target="mam_x7ai-kY7KDasfJsH-23" edge="1">
          <mxGeometry relative="1" as="geometry" />
        </mxCell>
        <mxCell id="mam_x7ai-kY7KDasfJsH-59" style="edgeStyle=orthogonalEdgeStyle;rounded=0;orthogonalLoop=1;jettySize=auto;html=1;exitX=0.5;exitY=0;exitDx=0;exitDy=0;entryX=0.172;entryY=0.969;entryDx=0;entryDy=0;entryPerimeter=0;" parent="1" source="mam_x7ai-kY7KDasfJsH-55" target="mam_x7ai-kY7KDasfJsH-23" edge="1">
          <mxGeometry relative="1" as="geometry" />
        </mxCell>
        <mxCell id="mam_x7ai-kY7KDasfJsH-60" style="edgeStyle=orthogonalEdgeStyle;rounded=0;orthogonalLoop=1;jettySize=auto;html=1;exitX=0.5;exitY=1;exitDx=0;exitDy=0;entryX=0;entryY=0.75;entryDx=0;entryDy=0;" parent="1" source="mam_x7ai-kY7KDasfJsH-61" target="mam_x7ai-kY7KDasfJsH-24" edge="1">
          <mxGeometry relative="1" as="geometry" />
        </mxCell>
        <mxCell id="mam_x7ai-kY7KDasfJsH-61" value="Id_proveedor (PK)" style="ellipse;whiteSpace=wrap;html=1;" parent="1" vertex="1">
          <mxGeometry x="830" y="55" width="110" height="40" as="geometry" />
        </mxCell>
        <mxCell id="WBLyx-b6XIHQ0y1airH2-10" style="edgeStyle=none;curved=1;rounded=0;orthogonalLoop=1;jettySize=auto;html=1;exitX=0.5;exitY=1;exitDx=0;exitDy=0;entryX=0.75;entryY=0;entryDx=0;entryDy=0;fontSize=12;startSize=8;endSize=8;" parent="1" source="mam_x7ai-kY7KDasfJsH-62" target="mam_x7ai-kY7KDasfJsH-24" edge="1">
          <mxGeometry relative="1" as="geometry" />
        </mxCell>
        <mxCell id="mam_x7ai-kY7KDasfJsH-62" value="Producto_suminitrados" style="ellipse;whiteSpace=wrap;html=1;" parent="1" vertex="1">
          <mxGeometry x="955" y="42.5" width="140" height="50" as="geometry" />
        </mxCell>
        <mxCell id="WBLyx-b6XIHQ0y1airH2-5" style="edgeStyle=none;curved=1;rounded=0;orthogonalLoop=1;jettySize=auto;html=1;exitX=0.5;exitY=0;exitDx=0;exitDy=0;fontSize=12;startSize=8;endSize=8;" parent="1" source="mam_x7ai-kY7KDasfJsH-63" edge="1">
          <mxGeometry relative="1" as="geometry">
            <mxPoint x="1000" y="164.9999999999999" as="targetPoint" />
          </mxGeometry>
        </mxCell>
        <mxCell id="mam_x7ai-kY7KDasfJsH-63" value="Contacto" style="ellipse;whiteSpace=wrap;html=1;" parent="1" vertex="1">
          <mxGeometry x="1040" y="181.25" width="80" height="40" as="geometry" />
        </mxCell>
        <mxCell id="WBLyx-b6XIHQ0y1airH2-4" style="edgeStyle=none;curved=1;rounded=0;orthogonalLoop=1;jettySize=auto;html=1;exitX=1;exitY=0;exitDx=0;exitDy=0;entryX=0.25;entryY=1;entryDx=0;entryDy=0;fontSize=12;startSize=8;endSize=8;" parent="1" source="mam_x7ai-kY7KDasfJsH-64" target="mam_x7ai-kY7KDasfJsH-24" edge="1">
          <mxGeometry relative="1" as="geometry" />
        </mxCell>
        <mxCell id="mam_x7ai-kY7KDasfJsH-64" value="Nombre" style="ellipse;whiteSpace=wrap;html=1;" parent="1" vertex="1">
          <mxGeometry x="790" y="165" width="80" height="40" as="geometry" />
        </mxCell>
        <mxCell id="mam_x7ai-kY7KDasfJsH-68" style="edgeStyle=orthogonalEdgeStyle;rounded=0;orthogonalLoop=1;jettySize=auto;html=1;exitX=1;exitY=1;exitDx=0;exitDy=0;entryX=0;entryY=0.25;entryDx=0;entryDy=0;" parent="1" source="mam_x7ai-kY7KDasfJsH-69" target="mam_x7ai-kY7KDasfJsH-22" edge="1">
          <mxGeometry relative="1" as="geometry" />
        </mxCell>
        <mxCell id="mam_x7ai-kY7KDasfJsH-69" value="Id_producto (PK)" style="ellipse;whiteSpace=wrap;html=1;" parent="1" vertex="1">
          <mxGeometry x="590" y="530" width="110" height="40" as="geometry" />
        </mxCell>
        <mxCell id="mam_x7ai-kY7KDasfJsH-70" value="Nombre" style="ellipse;whiteSpace=wrap;html=1;" parent="1" vertex="1">
          <mxGeometry x="630" y="485" width="70" height="30" as="geometry" />
        </mxCell>
        <mxCell id="mam_x7ai-kY7KDasfJsH-71" style="edgeStyle=orthogonalEdgeStyle;rounded=0;orthogonalLoop=1;jettySize=auto;html=1;exitX=1;exitY=1;exitDx=0;exitDy=0;" parent="1" source="mam_x7ai-kY7KDasfJsH-72" edge="1">
          <mxGeometry relative="1" as="geometry">
            <mxPoint x="820" y="580" as="targetPoint" />
          </mxGeometry>
        </mxCell>
        <mxCell id="mam_x7ai-kY7KDasfJsH-72" value="Descripción" style="ellipse;whiteSpace=wrap;html=1;" parent="1" vertex="1">
          <mxGeometry x="709" y="440" width="90" height="30" as="geometry" />
        </mxCell>
        <mxCell id="mam_x7ai-kY7KDasfJsH-73" style="edgeStyle=orthogonalEdgeStyle;rounded=0;orthogonalLoop=1;jettySize=auto;html=1;exitX=0;exitY=1;exitDx=0;exitDy=0;entryX=0.75;entryY=0;entryDx=0;entryDy=0;" parent="1" source="mam_x7ai-kY7KDasfJsH-74" target="mam_x7ai-kY7KDasfJsH-22" edge="1">
          <mxGeometry relative="1" as="geometry" />
        </mxCell>
        <mxCell id="mam_x7ai-kY7KDasfJsH-74" value="Precio_compra" style="ellipse;whiteSpace=wrap;html=1;" parent="1" vertex="1">
          <mxGeometry x="860" y="440" width="90" height="30" as="geometry" />
        </mxCell>
        <mxCell id="mam_x7ai-kY7KDasfJsH-75" value="Precio_venta" style="ellipse;whiteSpace=wrap;html=1;" parent="1" vertex="1">
          <mxGeometry x="930" y="475.5" width="90" height="30" as="geometry" />
        </mxCell>
        <mxCell id="mam_x7ai-kY7KDasfJsH-76" style="edgeStyle=orthogonalEdgeStyle;rounded=0;orthogonalLoop=1;jettySize=auto;html=1;exitX=1;exitY=1;exitDx=0;exitDy=0;entryX=0.072;entryY=0.009;entryDx=0;entryDy=0;entryPerimeter=0;" parent="1" source="mam_x7ai-kY7KDasfJsH-70" target="mam_x7ai-kY7KDasfJsH-22" edge="1">
          <mxGeometry relative="1" as="geometry" />
        </mxCell>
        <mxCell id="mam_x7ai-kY7KDasfJsH-77" style="edgeStyle=orthogonalEdgeStyle;rounded=0;orthogonalLoop=1;jettySize=auto;html=1;exitX=0;exitY=1;exitDx=0;exitDy=0;entryX=0.918;entryY=0.097;entryDx=0;entryDy=0;entryPerimeter=0;" parent="1" source="mam_x7ai-kY7KDasfJsH-75" target="mam_x7ai-kY7KDasfJsH-22" edge="1">
          <mxGeometry relative="1" as="geometry" />
        </mxCell>
        <mxCell id="mam_x7ai-kY7KDasfJsH-78" value="Stock_minimo" style="ellipse;whiteSpace=wrap;html=1;" parent="1" vertex="1">
          <mxGeometry x="750" y="780" width="90" height="30" as="geometry" />
        </mxCell>
        <mxCell id="mam_x7ai-kY7KDasfJsH-79" style="edgeStyle=orthogonalEdgeStyle;rounded=0;orthogonalLoop=1;jettySize=auto;html=1;exitX=1;exitY=0.5;exitDx=0;exitDy=0;entryX=0.25;entryY=1;entryDx=0;entryDy=0;" parent="1" source="mam_x7ai-kY7KDasfJsH-80" target="mam_x7ai-kY7KDasfJsH-22" edge="1">
          <mxGeometry relative="1" as="geometry" />
        </mxCell>
        <mxCell id="mam_x7ai-kY7KDasfJsH-80" value="Stock_actual" style="ellipse;whiteSpace=wrap;html=1;" parent="1" vertex="1">
          <mxGeometry x="680" y="705.5" width="90" height="30" as="geometry" />
        </mxCell>
        <mxCell id="mam_x7ai-kY7KDasfJsH-81" style="edgeStyle=orthogonalEdgeStyle;rounded=0;orthogonalLoop=1;jettySize=auto;html=1;exitX=0;exitY=0;exitDx=0;exitDy=0;entryX=0.75;entryY=1;entryDx=0;entryDy=0;" parent="1" source="mam_x7ai-kY7KDasfJsH-82" target="mam_x7ai-kY7KDasfJsH-22" edge="1">
          <mxGeometry relative="1" as="geometry">
            <Array as="points">
              <mxPoint x="901" y="680" />
              <mxPoint x="876" y="680" />
            </Array>
          </mxGeometry>
        </mxCell>
        <mxCell id="mam_x7ai-kY7KDasfJsH-82" value="Id_categoria (FK)" style="ellipse;whiteSpace=wrap;html=1;" parent="1" vertex="1">
          <mxGeometry x="880" y="695.5" width="80" height="40" as="geometry" />
        </mxCell>
        <mxCell id="mam_x7ai-kY7KDasfJsH-85" value="Realiza" style="strokeWidth=2;html=1;shape=mxgraph.flowchart.decision;whiteSpace=wrap;" parent="1" vertex="1">
          <mxGeometry x="1490" y="575.5" width="60" height="50" as="geometry" />
        </mxCell>
        <mxCell id="mam_x7ai-kY7KDasfJsH-86" value="" style="endArrow=none;html=1;rounded=0;exitX=1;exitY=0.5;exitDx=0;exitDy=0;exitPerimeter=0;" parent="1" source="mam_x7ai-kY7KDasfJsH-85" target="mam_x7ai-kY7KDasfJsH-1" edge="1">
          <mxGeometry relative="1" as="geometry">
            <mxPoint x="1426" y="653" as="sourcePoint" />
            <mxPoint x="1410" y="713" as="targetPoint" />
          </mxGeometry>
        </mxCell>
        <mxCell id="mam_x7ai-kY7KDasfJsH-87" style="edgeStyle=orthogonalEdgeStyle;rounded=0;orthogonalLoop=1;jettySize=auto;html=1;exitX=0.5;exitY=1;exitDx=0;exitDy=0;entryX=0.426;entryY=0.04;entryDx=0;entryDy=0;entryPerimeter=0;" parent="1" source="mam_x7ai-kY7KDasfJsH-3" target="mam_x7ai-kY7KDasfJsH-1" edge="1">
          <mxGeometry relative="1" as="geometry">
            <Array as="points">
              <mxPoint x="1724" y="520" />
              <mxPoint x="1769" y="520" />
            </Array>
          </mxGeometry>
        </mxCell>
        <mxCell id="mam_x7ai-kY7KDasfJsH-88" style="edgeStyle=orthogonalEdgeStyle;rounded=0;orthogonalLoop=1;jettySize=auto;html=1;exitX=1;exitY=1;exitDx=0;exitDy=0;entryX=0.178;entryY=-0.019;entryDx=0;entryDy=0;entryPerimeter=0;" parent="1" source="mam_x7ai-kY7KDasfJsH-2" target="mam_x7ai-kY7KDasfJsH-1" edge="1">
          <mxGeometry relative="1" as="geometry" />
        </mxCell>
        <mxCell id="mam_x7ai-kY7KDasfJsH-90" value="" style="endArrow=none;html=1;rounded=0;entryX=0;entryY=0.5;entryDx=0;entryDy=0;exitX=1;exitY=0.5;exitDx=0;exitDy=0;" parent="1" source="WBLyx-b6XIHQ0y1airH2-24" target="mam_x7ai-kY7KDasfJsH-25" edge="1">
          <mxGeometry relative="1" as="geometry">
            <mxPoint x="1140" y="601" as="sourcePoint" />
            <mxPoint x="1402" y="740" as="targetPoint" />
          </mxGeometry>
        </mxCell>
        <mxCell id="mam_x7ai-kY7KDasfJsH-91" value="Id_compra (PK)" style="ellipse;whiteSpace=wrap;html=1;" parent="1" vertex="1">
          <mxGeometry x="1162" y="500" width="110" height="40" as="geometry" />
        </mxCell>
        <mxCell id="mam_x7ai-kY7KDasfJsH-92" value="Fecha" style="ellipse;whiteSpace=wrap;html=1;" parent="1" vertex="1">
          <mxGeometry x="1272" y="485" width="78" height="35" as="geometry" />
        </mxCell>
        <mxCell id="mam_x7ai-kY7KDasfJsH-93" value="Total" style="ellipse;whiteSpace=wrap;html=1;" parent="1" vertex="1">
          <mxGeometry x="1400" y="535.5" width="80" height="30" as="geometry" />
        </mxCell>
        <mxCell id="mam_x7ai-kY7KDasfJsH-94" value="Hora" style="ellipse;whiteSpace=wrap;html=1;" parent="1" vertex="1">
          <mxGeometry x="1360" y="500" width="60" height="30" as="geometry" />
        </mxCell>
        <mxCell id="WBLyx-b6XIHQ0y1airH2-46" style="edgeStyle=none;curved=1;rounded=0;orthogonalLoop=1;jettySize=auto;html=1;exitX=0.5;exitY=0;exitDx=0;exitDy=0;entryX=0.25;entryY=1;entryDx=0;entryDy=0;fontSize=12;startSize=8;endSize=8;" parent="1" source="mam_x7ai-kY7KDasfJsH-96" target="mam_x7ai-kY7KDasfJsH-25" edge="1">
          <mxGeometry relative="1" as="geometry" />
        </mxCell>
        <mxCell id="mam_x7ai-kY7KDasfJsH-96" value="Id_usuario (FK)" style="ellipse;whiteSpace=wrap;html=1;" parent="1" vertex="1">
          <mxGeometry x="1230" y="680" width="80" height="40" as="geometry" />
        </mxCell>
        <mxCell id="WBLyx-b6XIHQ0y1airH2-47" style="edgeStyle=none;curved=1;rounded=0;orthogonalLoop=1;jettySize=auto;html=1;exitX=0.5;exitY=0;exitDx=0;exitDy=0;entryX=0.5;entryY=1;entryDx=0;entryDy=0;fontSize=12;startSize=8;endSize=8;" parent="1" source="mam_x7ai-kY7KDasfJsH-97" target="mam_x7ai-kY7KDasfJsH-25" edge="1">
          <mxGeometry relative="1" as="geometry" />
        </mxCell>
        <mxCell id="mam_x7ai-kY7KDasfJsH-97" value="Id_proveedor (FK)" style="ellipse;whiteSpace=wrap;html=1;" parent="1" vertex="1">
          <mxGeometry x="1323" y="685" width="110" height="40" as="geometry" />
        </mxCell>
        <mxCell id="mam_x7ai-kY7KDasfJsH-98" value="Id_producto (FK)" style="ellipse;whiteSpace=wrap;html=1;" parent="1" vertex="1">
          <mxGeometry x="1408" y="630" width="110" height="40" as="geometry" />
        </mxCell>
        <mxCell id="mam_x7ai-kY7KDasfJsH-100" style="edgeStyle=orthogonalEdgeStyle;rounded=0;orthogonalLoop=1;jettySize=auto;html=1;exitX=0;exitY=0;exitDx=0;exitDy=0;entryX=0.834;entryY=0.981;entryDx=0;entryDy=0;entryPerimeter=0;" parent="1" source="mam_x7ai-kY7KDasfJsH-98" target="mam_x7ai-kY7KDasfJsH-25" edge="1">
          <mxGeometry relative="1" as="geometry" />
        </mxCell>
        <mxCell id="mam_x7ai-kY7KDasfJsH-101" style="edgeStyle=orthogonalEdgeStyle;rounded=0;orthogonalLoop=1;jettySize=auto;html=1;exitX=1;exitY=1;exitDx=0;exitDy=0;entryX=0.082;entryY=0.106;entryDx=0;entryDy=0;entryPerimeter=0;" parent="1" source="mam_x7ai-kY7KDasfJsH-91" target="mam_x7ai-kY7KDasfJsH-25" edge="1">
          <mxGeometry relative="1" as="geometry" />
        </mxCell>
        <mxCell id="mam_x7ai-kY7KDasfJsH-102" style="edgeStyle=orthogonalEdgeStyle;rounded=0;orthogonalLoop=1;jettySize=auto;html=1;exitX=0.5;exitY=1;exitDx=0;exitDy=0;entryX=0.365;entryY=-0.019;entryDx=0;entryDy=0;entryPerimeter=0;" parent="1" source="mam_x7ai-kY7KDasfJsH-92" target="mam_x7ai-kY7KDasfJsH-25" edge="1">
          <mxGeometry relative="1" as="geometry" />
        </mxCell>
        <mxCell id="mam_x7ai-kY7KDasfJsH-103" style="edgeStyle=orthogonalEdgeStyle;rounded=0;orthogonalLoop=1;jettySize=auto;html=1;exitX=0;exitY=1;exitDx=0;exitDy=0;entryX=0.609;entryY=0.106;entryDx=0;entryDy=0;entryPerimeter=0;" parent="1" source="mam_x7ai-kY7KDasfJsH-94" target="mam_x7ai-kY7KDasfJsH-25" edge="1">
          <mxGeometry relative="1" as="geometry" />
        </mxCell>
        <mxCell id="mam_x7ai-kY7KDasfJsH-104" style="edgeStyle=orthogonalEdgeStyle;rounded=0;orthogonalLoop=1;jettySize=auto;html=1;exitX=0;exitY=0.5;exitDx=0;exitDy=0;entryX=0.922;entryY=-0.019;entryDx=0;entryDy=0;entryPerimeter=0;" parent="1" source="mam_x7ai-kY7KDasfJsH-93" target="mam_x7ai-kY7KDasfJsH-25" edge="1">
          <mxGeometry relative="1" as="geometry" />
        </mxCell>
        <mxCell id="mam_x7ai-kY7KDasfJsH-117" value="Id_historialP (PK)" style="ellipse;whiteSpace=wrap;html=1;" parent="1" vertex="1">
          <mxGeometry x="670" y="980" width="110" height="40" as="geometry" />
        </mxCell>
        <mxCell id="mam_x7ai-kY7KDasfJsH-118" style="edgeStyle=orthogonalEdgeStyle;rounded=0;orthogonalLoop=1;jettySize=auto;html=1;exitX=1;exitY=0.5;exitDx=0;exitDy=0;entryX=0.343;entryY=0.028;entryDx=0;entryDy=0;entryPerimeter=0;" parent="1" source="mam_x7ai-kY7KDasfJsH-117" target="mam_x7ai-kY7KDasfJsH-46" edge="1">
          <mxGeometry relative="1" as="geometry" />
        </mxCell>
        <mxCell id="mam_x7ai-kY7KDasfJsH-119" style="edgeStyle=orthogonalEdgeStyle;rounded=0;orthogonalLoop=1;jettySize=auto;html=1;exitX=0.5;exitY=0;exitDx=0;exitDy=0;entryX=0;entryY=1;entryDx=0;entryDy=0;" parent="1" source="mam_x7ai-kY7KDasfJsH-120" target="mam_x7ai-kY7KDasfJsH-46" edge="1">
          <mxGeometry relative="1" as="geometry" />
        </mxCell>
        <mxCell id="mam_x7ai-kY7KDasfJsH-120" value="Precio_antiguo" style="ellipse;whiteSpace=wrap;html=1;" parent="1" vertex="1">
          <mxGeometry x="693" y="1140" width="97" height="30" as="geometry" />
        </mxCell>
        <mxCell id="mam_x7ai-kY7KDasfJsH-121" style="edgeStyle=orthogonalEdgeStyle;rounded=0;orthogonalLoop=1;jettySize=auto;html=1;exitX=1;exitY=0.5;exitDx=0;exitDy=0;entryX=0;entryY=0.5;entryDx=0;entryDy=0;" parent="1" source="mam_x7ai-kY7KDasfJsH-122" target="mam_x7ai-kY7KDasfJsH-46" edge="1">
          <mxGeometry relative="1" as="geometry" />
        </mxCell>
        <mxCell id="mam_x7ai-kY7KDasfJsH-122" value="Id_producto (FK)" style="ellipse;whiteSpace=wrap;html=1;" parent="1" vertex="1">
          <mxGeometry x="630" y="1060" width="110" height="40" as="geometry" />
        </mxCell>
        <mxCell id="mam_x7ai-kY7KDasfJsH-123" style="edgeStyle=orthogonalEdgeStyle;rounded=0;orthogonalLoop=1;jettySize=auto;html=1;exitX=1;exitY=0;exitDx=0;exitDy=0;" parent="1" source="mam_x7ai-kY7KDasfJsH-124" edge="1">
          <mxGeometry relative="1" as="geometry">
            <mxPoint x="810" y="1080" as="targetPoint" />
          </mxGeometry>
        </mxCell>
        <mxCell id="mam_x7ai-kY7KDasfJsH-124" value="Precio_nuevo" style="ellipse;whiteSpace=wrap;html=1;" parent="1" vertex="1">
          <mxGeometry x="723" y="1190" width="107" height="30" as="geometry" />
        </mxCell>
        <mxCell id="mam_x7ai-kY7KDasfJsH-125" style="edgeStyle=orthogonalEdgeStyle;rounded=0;orthogonalLoop=1;jettySize=auto;html=1;exitX=0;exitY=0.5;exitDx=0;exitDy=0;entryX=1;entryY=0.25;entryDx=0;entryDy=0;" parent="1" source="mam_x7ai-kY7KDasfJsH-126" target="mam_x7ai-kY7KDasfJsH-46" edge="1">
          <mxGeometry relative="1" as="geometry" />
        </mxCell>
        <mxCell id="mam_x7ai-kY7KDasfJsH-126" value="Fecha_cambio" style="ellipse;whiteSpace=wrap;html=1;" parent="1" vertex="1">
          <mxGeometry x="960" y="1030" width="110" height="40" as="geometry" />
        </mxCell>
        <mxCell id="mam_x7ai-kY7KDasfJsH-127" value="Motivo" style="ellipse;whiteSpace=wrap;html=1;" parent="1" vertex="1">
          <mxGeometry x="950" y="1090" width="110" height="40" as="geometry" />
        </mxCell>
        <mxCell id="mam_x7ai-kY7KDasfJsH-128" style="edgeStyle=orthogonalEdgeStyle;rounded=0;orthogonalLoop=1;jettySize=auto;html=1;exitX=0;exitY=0.5;exitDx=0;exitDy=0;entryX=0.75;entryY=0;entryDx=0;entryDy=0;" parent="1" source="mam_x7ai-kY7KDasfJsH-129" target="mam_x7ai-kY7KDasfJsH-46" edge="1">
          <mxGeometry relative="1" as="geometry" />
        </mxCell>
        <mxCell id="mam_x7ai-kY7KDasfJsH-129" value="Id_usuario (FK)" style="ellipse;whiteSpace=wrap;html=1;" parent="1" vertex="1">
          <mxGeometry x="920" y="980" width="80" height="40" as="geometry" />
        </mxCell>
        <mxCell id="mam_x7ai-kY7KDasfJsH-130" style="edgeStyle=orthogonalEdgeStyle;rounded=0;orthogonalLoop=1;jettySize=auto;html=1;exitX=0;exitY=0.5;exitDx=0;exitDy=0;entryX=0.904;entryY=0.94;entryDx=0;entryDy=0;entryPerimeter=0;" parent="1" source="mam_x7ai-kY7KDasfJsH-127" target="mam_x7ai-kY7KDasfJsH-46" edge="1">
          <mxGeometry relative="1" as="geometry" />
        </mxCell>
        <mxCell id="mam_x7ai-kY7KDasfJsH-131" style="edgeStyle=orthogonalEdgeStyle;rounded=0;orthogonalLoop=1;jettySize=auto;html=1;exitX=0;exitY=0;exitDx=0;exitDy=0;entryX=0.25;entryY=1;entryDx=0;entryDy=0;" parent="1" source="mam_x7ai-kY7KDasfJsH-11" target="mam_x7ai-kY7KDasfJsH-1" edge="1">
          <mxGeometry relative="1" as="geometry">
            <Array as="points">
              <mxPoint x="1777" y="680" />
              <mxPoint x="1745" y="680" />
            </Array>
          </mxGeometry>
        </mxCell>
        <mxCell id="mam_x7ai-kY7KDasfJsH-132" value="Realiza" style="strokeWidth=2;html=1;shape=mxgraph.flowchart.decision;whiteSpace=wrap;" parent="1" vertex="1">
          <mxGeometry x="1465" y="1230" width="60" height="50" as="geometry" />
        </mxCell>
        <mxCell id="mam_x7ai-kY7KDasfJsH-133" value="" style="endArrow=none;html=1;rounded=0;exitX=0;exitY=0.5;exitDx=0;exitDy=0;exitPerimeter=0;entryX=0.5;entryY=1;entryDx=0;entryDy=0;" parent="1" source="mam_x7ai-kY7KDasfJsH-132" target="mam_x7ai-kY7KDasfJsH-46" edge="1">
          <mxGeometry relative="1" as="geometry">
            <mxPoint x="1700" y="1350" as="sourcePoint" />
            <mxPoint x="1684" y="1410" as="targetPoint" />
            <Array as="points">
              <mxPoint x="844" y="1260" />
            </Array>
          </mxGeometry>
        </mxCell>
        <mxCell id="WBLyx-b6XIHQ0y1airH2-64" style="edgeStyle=none;curved=1;rounded=0;orthogonalLoop=1;jettySize=auto;html=1;exitX=1;exitY=0;exitDx=0;exitDy=0;fontSize=12;startSize=8;endSize=8;" parent="1" source="mam_x7ai-kY7KDasfJsH-135" edge="1">
          <mxGeometry relative="1" as="geometry">
            <mxPoint x="1410" y="330" as="targetPoint" />
          </mxGeometry>
        </mxCell>
        <mxCell id="mam_x7ai-kY7KDasfJsH-135" value="Id_stock (PK)" style="ellipse;whiteSpace=wrap;html=1;" parent="1" vertex="1">
          <mxGeometry x="1280" y="360" width="80" height="40" as="geometry" />
        </mxCell>
        <mxCell id="mam_x7ai-kY7KDasfJsH-136" value="" style="endArrow=none;html=1;rounded=0;exitX=0;exitY=0.5;exitDx=0;exitDy=0;exitPerimeter=0;entryX=1;entryY=0.5;entryDx=0;entryDy=0;" parent="1" source="mam_x7ai-kY7KDasfJsH-18" target="mam_x7ai-kY7KDasfJsH-17" edge="1">
          <mxGeometry relative="1" as="geometry">
            <mxPoint x="1360" y="170" as="sourcePoint" />
            <mxPoint x="1360" y="330" as="targetPoint" />
          </mxGeometry>
        </mxCell>
        <mxCell id="mam_x7ai-kY7KDasfJsH-138" value="Cambia" style="strokeWidth=2;html=1;shape=mxgraph.flowchart.decision;whiteSpace=wrap;" parent="1" vertex="1">
          <mxGeometry x="1042" y="360" width="60" height="50" as="geometry" />
        </mxCell>
        <mxCell id="mam_x7ai-kY7KDasfJsH-140" style="edgeStyle=orthogonalEdgeStyle;rounded=0;orthogonalLoop=1;jettySize=auto;html=1;exitX=0;exitY=1;exitDx=0;exitDy=0;" parent="1" source="mam_x7ai-kY7KDasfJsH-141" edge="1">
          <mxGeometry relative="1" as="geometry">
            <mxPoint x="1422.6153846153843" y="280" as="targetPoint" />
          </mxGeometry>
        </mxCell>
        <mxCell id="mam_x7ai-kY7KDasfJsH-141" value="Fecha" style="ellipse;whiteSpace=wrap;html=1;" parent="1" vertex="1">
          <mxGeometry x="1310" y="185" width="78" height="35" as="geometry" />
        </mxCell>
        <mxCell id="mam_x7ai-kY7KDasfJsH-142" style="edgeStyle=orthogonalEdgeStyle;rounded=0;orthogonalLoop=1;jettySize=auto;html=1;exitX=0;exitY=1;exitDx=0;exitDy=0;" parent="1" source="mam_x7ai-kY7KDasfJsH-143" edge="1">
          <mxGeometry relative="1" as="geometry">
            <mxPoint x="1500" y="282" as="targetPoint" />
          </mxGeometry>
        </mxCell>
        <mxCell id="mam_x7ai-kY7KDasfJsH-143" value="Id_producto (FK)" style="ellipse;whiteSpace=wrap;html=1;" parent="1" vertex="1">
          <mxGeometry x="1530" y="190" width="110" height="40" as="geometry" />
        </mxCell>
        <mxCell id="mam_x7ai-kY7KDasfJsH-144" value="Cantidad_anterior" style="ellipse;whiteSpace=wrap;html=1;" parent="1" vertex="1">
          <mxGeometry x="1550" y="250" width="120" height="30" as="geometry" />
        </mxCell>
        <mxCell id="mam_x7ai-kY7KDasfJsH-145" style="edgeStyle=orthogonalEdgeStyle;rounded=0;orthogonalLoop=1;jettySize=auto;html=1;exitX=0;exitY=0.5;exitDx=0;exitDy=0;entryX=0.897;entryY=0.037;entryDx=0;entryDy=0;entryPerimeter=0;" parent="1" source="mam_x7ai-kY7KDasfJsH-144" target="mam_x7ai-kY7KDasfJsH-17" edge="1">
          <mxGeometry relative="1" as="geometry" />
        </mxCell>
        <mxCell id="WBLyx-b6XIHQ0y1airH2-65" style="edgeStyle=none;curved=1;rounded=0;orthogonalLoop=1;jettySize=auto;html=1;exitX=0.5;exitY=0;exitDx=0;exitDy=0;fontSize=12;startSize=8;endSize=8;" parent="1" source="mam_x7ai-kY7KDasfJsH-146" edge="1">
          <mxGeometry relative="1" as="geometry">
            <mxPoint x="1430" y="320" as="targetPoint" />
          </mxGeometry>
        </mxCell>
        <mxCell id="mam_x7ai-kY7KDasfJsH-146" value="Cantidad_nueva" style="ellipse;whiteSpace=wrap;html=1;" parent="1" vertex="1">
          <mxGeometry x="1360" y="400" width="100" height="40" as="geometry" />
        </mxCell>
        <mxCell id="mam_x7ai-kY7KDasfJsH-148" style="edgeStyle=orthogonalEdgeStyle;rounded=0;orthogonalLoop=1;jettySize=auto;html=1;exitX=0.5;exitY=0;exitDx=0;exitDy=0;" parent="1" source="mam_x7ai-kY7KDasfJsH-149" edge="1">
          <mxGeometry relative="1" as="geometry">
            <mxPoint x="1460" y="330" as="targetPoint" />
          </mxGeometry>
        </mxCell>
        <mxCell id="mam_x7ai-kY7KDasfJsH-149" value="Motivo" style="ellipse;whiteSpace=wrap;html=1;" parent="1" vertex="1">
          <mxGeometry x="1460" y="390" width="90" height="30" as="geometry" />
        </mxCell>
        <mxCell id="mam_x7ai-kY7KDasfJsH-150" value="Id_usuario (FK)" style="ellipse;whiteSpace=wrap;html=1;" parent="1" vertex="1">
          <mxGeometry x="1540" y="360" width="80" height="40" as="geometry" />
        </mxCell>
        <mxCell id="mam_x7ai-kY7KDasfJsH-151" style="edgeStyle=orthogonalEdgeStyle;rounded=0;orthogonalLoop=1;jettySize=auto;html=1;exitX=0;exitY=0;exitDx=0;exitDy=0;entryX=0.909;entryY=0.921;entryDx=0;entryDy=0;entryPerimeter=0;" parent="1" source="mam_x7ai-kY7KDasfJsH-150" target="mam_x7ai-kY7KDasfJsH-17" edge="1">
          <mxGeometry relative="1" as="geometry" />
        </mxCell>
        <mxCell id="mam_x7ai-kY7KDasfJsH-152" style="edgeStyle=orthogonalEdgeStyle;rounded=0;orthogonalLoop=1;jettySize=auto;html=1;exitX=1;exitY=0;exitDx=0;exitDy=0;entryX=0.327;entryY=0.924;entryDx=0;entryDy=0;entryPerimeter=0;" parent="1" source="mam_x7ai-kY7KDasfJsH-78" target="mam_x7ai-kY7KDasfJsH-22" edge="1">
          <mxGeometry relative="1" as="geometry" />
        </mxCell>
        <mxCell id="mam_x7ai-kY7KDasfJsH-168" value="N" style="text;html=1;align=center;verticalAlign=middle;whiteSpace=wrap;rounded=0;" parent="1" vertex="1">
          <mxGeometry x="620" y="570" width="60" height="30" as="geometry" />
        </mxCell>
        <mxCell id="mam_x7ai-kY7KDasfJsH-170" value="(1,N)" style="text;html=1;align=center;verticalAlign=middle;whiteSpace=wrap;rounded=0;" parent="1" vertex="1">
          <mxGeometry x="955" y="554.5" width="60" height="30" as="geometry" />
        </mxCell>
        <mxCell id="mam_x7ai-kY7KDasfJsH-171" value="1" style="text;html=1;align=center;verticalAlign=middle;whiteSpace=wrap;rounded=0;" parent="1" vertex="1">
          <mxGeometry x="370" y="565.5" width="60" height="30" as="geometry" />
        </mxCell>
        <mxCell id="mam_x7ai-kY7KDasfJsH-172" value="0" style="text;html=1;align=center;verticalAlign=middle;whiteSpace=wrap;rounded=0;" parent="1" vertex="1">
          <mxGeometry x="840" y="860" width="60" height="30" as="geometry" />
        </mxCell>
        <mxCell id="mam_x7ai-kY7KDasfJsH-173" value="N" style="text;html=1;align=center;verticalAlign=middle;whiteSpace=wrap;rounded=0;" parent="1" vertex="1">
          <mxGeometry x="840" y="945" width="60" height="30" as="geometry" />
        </mxCell>
        <mxCell id="mam_x7ai-kY7KDasfJsH-174" value="(0,N)" style="text;html=1;align=center;verticalAlign=middle;whiteSpace=wrap;rounded=0;" parent="1" vertex="1">
          <mxGeometry x="1540" y="1230" width="60" height="30" as="geometry" />
        </mxCell>
        <mxCell id="mam_x7ai-kY7KDasfJsH-175" value="(1,1)" style="text;html=1;align=center;verticalAlign=middle;whiteSpace=wrap;rounded=0;" parent="1" vertex="1">
          <mxGeometry x="1380" y="1230" width="60" height="30" as="geometry" />
        </mxCell>
        <mxCell id="mam_x7ai-kY7KDasfJsH-176" value="N" style="text;html=1;align=center;verticalAlign=middle;whiteSpace=wrap;rounded=0;" parent="1" vertex="1">
          <mxGeometry x="1187" y="262.5" width="60" height="30" as="geometry" />
        </mxCell>
        <mxCell id="mam_x7ai-kY7KDasfJsH-178" value="(0,N)" style="text;html=1;align=center;verticalAlign=middle;whiteSpace=wrap;rounded=0;" parent="1" vertex="1">
          <mxGeometry x="1782" y="345" width="60" height="30" as="geometry" />
        </mxCell>
        <mxCell id="mam_x7ai-kY7KDasfJsH-179" value="(1,1)" style="text;html=1;align=center;verticalAlign=middle;whiteSpace=wrap;rounded=0;" parent="1" vertex="1">
          <mxGeometry x="1688" y="270" width="60" height="30" as="geometry" />
        </mxCell>
        <mxCell id="mam_x7ai-kY7KDasfJsH-184" value="(0,N)" style="text;html=1;align=center;verticalAlign=middle;whiteSpace=wrap;rounded=0;" parent="1" vertex="1">
          <mxGeometry x="1550" y="570" width="60" height="30" as="geometry" />
        </mxCell>
        <mxCell id="mam_x7ai-kY7KDasfJsH-185" value="(1,1)" style="text;html=1;align=center;verticalAlign=middle;whiteSpace=wrap;rounded=0;" parent="1" vertex="1">
          <mxGeometry x="1433" y="570" width="60" height="30" as="geometry" />
        </mxCell>
        <mxCell id="mam_x7ai-kY7KDasfJsH-188" value="(0,N)" style="text;html=1;align=center;verticalAlign=middle;whiteSpace=wrap;rounded=0;" parent="1" vertex="1">
          <mxGeometry x="1885" y="573" width="60" height="30" as="geometry" />
        </mxCell>
        <mxCell id="mam_x7ai-kY7KDasfJsH-189" value="Vencimiento" style="ellipse;whiteSpace=wrap;html=1;" parent="1" vertex="1">
          <mxGeometry x="670" y="670" width="90" height="30" as="geometry" />
        </mxCell>
        <mxCell id="mam_x7ai-kY7KDasfJsH-190" style="edgeStyle=orthogonalEdgeStyle;rounded=0;orthogonalLoop=1;jettySize=auto;html=1;exitX=1;exitY=0.5;exitDx=0;exitDy=0;entryX=0.091;entryY=0.987;entryDx=0;entryDy=0;entryPerimeter=0;" parent="1" source="mam_x7ai-kY7KDasfJsH-189" target="mam_x7ai-kY7KDasfJsH-22" edge="1">
          <mxGeometry relative="1" as="geometry" />
        </mxCell>
        <mxCell id="mam_x7ai-kY7KDasfJsH-198" value="(1,1)" style="text;html=1;align=center;verticalAlign=middle;whiteSpace=wrap;rounded=0;" parent="1" vertex="1">
          <mxGeometry x="2014" y="573" width="60" height="30" as="geometry" />
        </mxCell>
        <mxCell id="mam_x7ai-kY7KDasfJsH-169" value="1" style="text;html=1;align=center;verticalAlign=middle;whiteSpace=wrap;rounded=0;" parent="1" vertex="1">
          <mxGeometry x="1102" y="106.25" width="60" height="18.75" as="geometry" />
        </mxCell>
        <mxCell id="WBLyx-b6XIHQ0y1airH2-14" value="" style="endArrow=none;html=1;rounded=0;exitX=0.5;exitY=1;exitDx=0;exitDy=0;exitPerimeter=0;" parent="1" source="mam_x7ai-kY7KDasfJsH-43" edge="1">
          <mxGeometry relative="1" as="geometry">
            <mxPoint x="770" y="140" as="sourcePoint" />
            <mxPoint x="1400" y="310" as="targetPoint" />
            <Array as="points">
              <mxPoint x="1197" y="310" />
            </Array>
          </mxGeometry>
        </mxCell>
        <mxCell id="WBLyx-b6XIHQ0y1airH2-22" style="edgeStyle=none;curved=1;rounded=0;orthogonalLoop=1;jettySize=auto;html=1;exitX=1;exitY=1;exitDx=0;exitDy=0;fontSize=12;startSize=8;endSize=8;" parent="1" source="WBLyx-b6XIHQ0y1airH2-20" edge="1">
          <mxGeometry relative="1" as="geometry">
            <mxPoint x="1410" y="290" as="targetPoint" />
          </mxGeometry>
        </mxCell>
        <mxCell id="WBLyx-b6XIHQ0y1airH2-20" value="Id_proveedor (FK)" style="ellipse;whiteSpace=wrap;html=1;" parent="1" vertex="1">
          <mxGeometry x="1278" y="230" width="110" height="40" as="geometry" />
        </mxCell>
        <mxCell id="WBLyx-b6XIHQ0y1airH2-24" value="Contiene&amp;nbsp;" style="html=1;whiteSpace=wrap;" parent="1" vertex="1">
          <mxGeometry x="1053" y="585.5" width="80" height="30" as="geometry" />
        </mxCell>
        <mxCell id="WBLyx-b6XIHQ0y1airH2-36" style="edgeStyle=none;curved=1;rounded=0;orthogonalLoop=1;jettySize=auto;html=1;exitX=0.5;exitY=0;exitDx=0;exitDy=0;entryX=0.25;entryY=1;entryDx=0;entryDy=0;fontSize=12;startSize=8;endSize=8;" parent="1" source="WBLyx-b6XIHQ0y1airH2-30" target="WBLyx-b6XIHQ0y1airH2-24" edge="1">
          <mxGeometry relative="1" as="geometry" />
        </mxCell>
        <mxCell id="WBLyx-b6XIHQ0y1airH2-30" value="Id_producto (FK)" style="ellipse;whiteSpace=wrap;html=1;" parent="1" vertex="1">
          <mxGeometry x="1000" y="705.5" width="100" height="40" as="geometry" />
        </mxCell>
        <mxCell id="WBLyx-b6XIHQ0y1airH2-37" style="edgeStyle=none;curved=1;rounded=0;orthogonalLoop=1;jettySize=auto;html=1;exitX=0.5;exitY=0;exitDx=0;exitDy=0;entryX=0.75;entryY=1;entryDx=0;entryDy=0;fontSize=12;startSize=8;endSize=8;" parent="1" source="WBLyx-b6XIHQ0y1airH2-32" target="WBLyx-b6XIHQ0y1airH2-24" edge="1">
          <mxGeometry relative="1" as="geometry" />
        </mxCell>
        <mxCell id="WBLyx-b6XIHQ0y1airH2-32" value="Id_compra (FK)" style="ellipse;whiteSpace=wrap;html=1;" parent="1" vertex="1">
          <mxGeometry x="1082" y="660" width="88" height="40" as="geometry" />
        </mxCell>
        <mxCell id="WBLyx-b6XIHQ0y1airH2-38" value="" style="endArrow=none;html=1;rounded=0;exitX=0.5;exitY=1;exitDx=0;exitDy=0;exitPerimeter=0;" parent="1" source="mam_x7ai-kY7KDasfJsH-138" edge="1">
          <mxGeometry relative="1" as="geometry">
            <mxPoint x="1095" y="400.5" as="sourcePoint" />
            <mxPoint x="1260" y="600" as="targetPoint" />
            <Array as="points">
              <mxPoint x="1100" y="520" />
            </Array>
          </mxGeometry>
        </mxCell>
        <mxCell id="WBLyx-b6XIHQ0y1airH2-39" value="" style="endArrow=none;html=1;rounded=0;entryX=0.5;entryY=0;entryDx=0;entryDy=0;entryPerimeter=0;" parent="1" target="mam_x7ai-kY7KDasfJsH-138" edge="1">
          <mxGeometry relative="1" as="geometry">
            <mxPoint x="990" y="160" as="sourcePoint" />
            <mxPoint x="482" y="230" as="targetPoint" />
          </mxGeometry>
        </mxCell>
        <mxCell id="WBLyx-b6XIHQ0y1airH2-49" value="" style="endArrow=none;html=1;rounded=0;entryX=1;entryY=0.5;entryDx=0;entryDy=0;" parent="1" target="WBLyx-b6XIHQ0y1airH2-54" edge="1">
          <mxGeometry relative="1" as="geometry">
            <mxPoint x="840" y="580" as="sourcePoint" />
            <mxPoint x="650" y="290" as="targetPoint" />
            <Array as="points">
              <mxPoint x="830" y="255" />
            </Array>
          </mxGeometry>
        </mxCell>
        <mxCell id="WBLyx-b6XIHQ0y1airH2-57" value="" style="endArrow=none;html=1;rounded=0;entryX=0.5;entryY=0;entryDx=0;entryDy=0;entryPerimeter=0;exitX=0.5;exitY=0;exitDx=0;exitDy=0;" parent="1" source="mam_x7ai-kY7KDasfJsH-17" target="WBLyx-b6XIHQ0y1airH2-54" edge="1">
          <mxGeometry relative="1" as="geometry">
            <mxPoint x="1461" y="285" as="sourcePoint" />
            <mxPoint x="650" y="240" as="targetPoint" />
            <Array as="points">
              <mxPoint x="1461" y="-10" />
              <mxPoint x="650" y="-10" />
            </Array>
          </mxGeometry>
        </mxCell>
        <mxCell id="WBLyx-b6XIHQ0y1airH2-54" value="Cambia" style="html=1;whiteSpace=wrap;" parent="1" vertex="1">
          <mxGeometry x="610" y="240" width="80" height="30" as="geometry" />
        </mxCell>
        <mxCell id="WBLyx-b6XIHQ0y1airH2-58" style="edgeStyle=none;curved=1;rounded=0;orthogonalLoop=1;jettySize=auto;html=1;entryX=1;entryY=0.5;entryDx=0;entryDy=0;fontSize=12;startSize=8;endSize=8;" parent="1" source="WBLyx-b6XIHQ0y1airH2-54" target="WBLyx-b6XIHQ0y1airH2-54" edge="1">
          <mxGeometry relative="1" as="geometry" />
        </mxCell>
        <mxCell id="WBLyx-b6XIHQ0y1airH2-68" style="edgeStyle=none;curved=1;rounded=0;orthogonalLoop=1;jettySize=auto;html=1;exitX=0.5;exitY=0;exitDx=0;exitDy=0;entryX=0;entryY=0.75;entryDx=0;entryDy=0;fontSize=12;startSize=8;endSize=8;" parent="1" source="WBLyx-b6XIHQ0y1airH2-62" target="WBLyx-b6XIHQ0y1airH2-54" edge="1">
          <mxGeometry relative="1" as="geometry" />
        </mxCell>
        <mxCell id="WBLyx-b6XIHQ0y1airH2-62" value="Id_producto (FK)" style="ellipse;whiteSpace=wrap;html=1;" parent="1" vertex="1">
          <mxGeometry x="480" y="345" width="110" height="40" as="geometry" />
        </mxCell>
        <mxCell id="WBLyx-b6XIHQ0y1airH2-67" style="edgeStyle=none;curved=1;rounded=0;orthogonalLoop=1;jettySize=auto;html=1;exitX=1;exitY=1;exitDx=0;exitDy=0;entryX=0.25;entryY=0;entryDx=0;entryDy=0;fontSize=12;startSize=8;endSize=8;" parent="1" source="WBLyx-b6XIHQ0y1airH2-66" target="WBLyx-b6XIHQ0y1airH2-54" edge="1">
          <mxGeometry relative="1" as="geometry" />
        </mxCell>
        <mxCell id="WBLyx-b6XIHQ0y1airH2-66" value="Id_stock (PK)" style="ellipse;whiteSpace=wrap;html=1;" parent="1" vertex="1">
          <mxGeometry x="480" y="185" width="80" height="40" as="geometry" />
        </mxCell>
      </root>
    </mxGraphModel>
  </diagram>
</mxfile>
